<svg width="115" height="35" viewBox="0 0 115 35" fill="none" xmlns="http://www.w3.org/2000/svg">
<g clip-path="url(#clip0_214_351)">
<path d="M10.4533 4.3335H4.52157V7.70453C4.52157 9.74595 3.38446 10.9189 1.39676 10.9189H0V16.7611H3.98435V26.7354C3.98435 31.1048 6.76892 33.8222 11.2502 33.8222C13.0991 33.8222 14.2138 33.473 14.7152 33.2626L14.8854 33.1909V27.6487L14.4959 27.8143C14.272 27.9128 13.6095 27.971 12.7723 27.971C11.0622 27.971 10.4578 27.3756 10.4578 25.6968V16.7566H14.8898V10.9144H10.4578V4.3335H10.4533Z" fill="white"/>
<path d="M24.6583 10.9233H18.1445V33.5088H24.6583V10.9233Z" fill="white"/>
<path d="M21.3767 0C19.1607 0 17.4237 1.75491 17.4237 3.99778C17.4237 6.11531 19.2323 7.90603 21.3767 7.90603C23.5927 7.90603 25.3297 6.19141 25.3297 3.99778C25.3297 1.71909 23.6286 0 21.3767 0Z" fill="white"/>
<path d="M39.857 0.214844C34.8206 0.214844 31.5615 3.5411 31.5615 8.68942V10.9189H27.8905V16.582H31.5615V33.5043H38.12V16.582H43.0892V10.9144H38.12V8.77448C38.12 6.37044 39.8794 6.00782 40.9314 6.00782C41.8044 6.00782 42.3864 6.07497 42.6998 6.20927L43.0892 6.37491V0.761013L42.9236 0.684907C42.4088 0.452114 41.1911 0.214844 39.857 0.214844Z" fill="white"/>
<path d="M52.8621 0.582031H46.3484V33.5537H52.8621V0.582031Z" fill="white"/>
<path d="M76.7816 29.2378V10.9143H70.2679V24C70.2679 26.507 68.7816 28.0604 66.382 28.0604C63.1184 28.0604 62.6304 25.4594 62.6304 23.906V10.9143H56.1167V25.1192C56.1167 30.3973 59.6758 34.0862 64.7704 34.0862C67.2415 34.0862 69.3501 33.2177 70.5947 31.718C70.6171 32.291 70.6618 32.9133 70.7693 33.2983L70.823 33.5042H77.0547L77.001 33.173C76.8667 32.4074 76.7816 30.8987 76.7816 29.2378Z" fill="white"/>
<path d="M96.9451 24.4075L90.3329 33.5043H98.5254L101.037 30.0438L96.9451 24.4075Z" fill="white"/>
<path d="M108.392 19.9216L114.933 10.9143H106.745L104.296 14.2853L108.392 19.9216Z" fill="white"/>
<path d="M106.763 22.1645L102.666 16.5282L98.5881 10.9143H90.4L98.5702 22.1645L106.807 33.5042H115L106.763 22.1645Z" fill="white"/>
<path d="M91.2192 16.5282L87.1408 10.9143H85.1576C85.1576 11.5142 84.6696 12.0022 84.0697 12.0022C83.4699 12.0022 82.9819 11.5142 82.9819 10.9143H78.9483L87.1229 22.1645L78.8856 33.5042H82.9819C82.9819 32.9043 83.4699 32.4164 84.0697 32.4164C84.6696 32.4164 85.1576 32.9043 85.1576 33.5042H87.0782L91.2192 27.8008L95.3155 22.1645L91.2192 16.5282Z" fill="#FE5000"/>
</g>
<defs>
<clipPath id="clip0_214_351">
<rect width="115" height="35" fill="white"/>
</clipPath>
</defs>
</svg>
