<svg width="35" height="35" viewBox="0 0 35 35" fill="none" xmlns="http://www.w3.org/2000/svg">
<path d="M22.4739 24.7598C23.4832 23.7716 24.1752 22.5051 24.4617 21.122C24.7482 19.7389 24.6162 18.3018 24.0826 16.994C23.5489 15.6862 22.6378 14.567 21.4654 13.7792C20.2931 12.9913 18.9126 12.5706 17.5001 12.5706C16.0876 12.5706 14.7071 12.9913 13.5348 13.7792C12.3624 14.567 11.4513 15.6862 10.9176 16.994C10.384 18.3018 10.252 19.7389 10.5385 21.122C10.825 22.5051 11.517 23.7716 12.5263 24.7598C10.8175 25.6681 9.39679 27.0362 8.42471 28.7096C8.21653 29.0857 8.16433 29.5286 8.27935 29.9429C8.39437 30.3571 8.66741 30.7097 9.03973 30.9247C9.41205 31.1397 9.85388 31.2 10.2702 31.0925C10.6865 30.9851 11.044 30.7185 11.2657 30.3502C11.9068 29.267 12.819 28.3695 13.9124 27.7461C15.0058 27.1227 16.2428 26.7948 17.5015 26.7948C18.7601 26.7948 19.9971 27.1227 21.0905 27.7461C22.1839 28.3695 23.0961 29.267 23.7372 30.3502C23.8427 30.5409 23.9852 30.7087 24.1563 30.8437C24.3274 30.9787 24.5237 31.0783 24.7338 31.1366C24.9438 31.1949 25.1633 31.2108 25.3796 31.1833C25.5958 31.1558 25.8044 31.0855 25.9931 30.9765C26.1819 30.8675 26.347 30.722 26.4789 30.5485C26.6108 30.3749 26.7068 30.1768 26.7612 29.9658C26.8157 29.7547 26.8276 29.535 26.7962 29.3193C26.7647 29.1036 26.6906 28.8963 26.5782 28.7096C25.6054 27.0359 24.1837 25.6677 22.4739 24.7598ZM13.672 19.6875C13.672 18.9304 13.8965 18.1902 14.3171 17.5607C14.7378 16.9312 15.3356 16.4405 16.0351 16.1508C16.7346 15.861 17.5043 15.7852 18.2469 15.9329C18.9895 16.0806 19.6716 16.4452 20.207 16.9806C20.7424 17.516 21.107 18.1981 21.2547 18.9407C21.4024 19.6832 21.3266 20.453 21.0368 21.1525C20.7471 21.852 20.2564 22.4498 19.6269 22.8705C18.9974 23.2911 18.2572 23.5156 17.5001 23.5156C16.4848 23.5156 15.5111 23.1123 14.7932 22.3944C14.0753 21.6765 13.672 20.7028 13.672 19.6875ZM33.7983 20.9986C33.626 21.1282 33.4299 21.2225 33.2211 21.2762C33.0123 21.3299 32.7949 21.3419 32.5815 21.3116C32.3681 21.2812 32.1627 21.2091 31.9771 21.0993C31.7916 20.9896 31.6295 20.8443 31.5001 20.6719C30.3612 19.1557 28.7862 17.9935 27.4901 17.7133C27.1455 17.6387 26.8341 17.4552 26.6019 17.1897C26.3698 16.9243 26.2294 16.5911 26.2015 16.2396C26.1736 15.8882 26.2596 15.537 26.4469 15.2383C26.6342 14.9395 26.9128 14.7091 27.2413 14.581C27.6504 14.4214 28.0149 14.1655 28.3042 13.8352C28.5935 13.5048 28.7989 13.1097 28.9032 12.6831C29.0074 12.2566 29.0074 11.8112 28.9032 11.3846C28.7989 10.9581 28.5935 10.5629 28.3042 10.2325C28.0149 9.90218 27.6504 9.64635 27.2413 9.48667C26.8323 9.327 26.3908 9.26819 25.9542 9.31521C25.5176 9.36223 25.0988 9.5137 24.7331 9.75682C24.3674 9.99993 24.0657 10.3275 23.8534 10.7119C23.7527 10.9067 23.614 11.0793 23.4455 11.2196C23.277 11.3599 23.0821 11.4649 22.8722 11.5286C22.6624 11.5923 22.442 11.6132 22.2239 11.5902C22.0058 11.5672 21.7946 11.5007 21.6027 11.3947C21.4107 11.2887 21.242 11.1453 21.1064 10.973C20.9709 10.8006 20.8712 10.6028 20.8134 10.3913C20.7556 10.1798 20.7407 9.95889 20.7697 9.74156C20.7988 9.52422 20.871 9.3149 20.9823 9.12597C21.3883 8.40813 21.9375 7.78142 22.5959 7.28478C23.2543 6.78815 24.0078 6.43219 24.8095 6.23901C25.6112 6.04584 26.4441 6.01958 27.2565 6.16187C28.0688 6.30415 28.8432 6.61194 29.5315 7.06612C30.2199 7.52029 30.8075 8.11116 31.2579 8.802C31.7083 9.49285 32.0118 10.2689 32.1496 11.082C32.2874 11.8951 32.2566 12.7278 32.059 13.5285C31.8614 14.3292 31.5013 15.0807 31.0011 15.7363C32.2049 16.5382 33.2616 17.5413 34.1251 18.7018C34.3863 19.0497 34.4986 19.4871 34.4374 19.9179C34.3761 20.3486 34.1462 20.7374 33.7983 20.9986ZM7.51006 17.7174C6.21396 17.9976 4.63896 19.1598 3.5001 20.6773C3.23812 21.0253 2.84866 21.2548 2.4174 21.3156C1.98614 21.3764 1.5484 21.2633 1.20049 21.0014C0.852573 20.7394 0.622978 20.3499 0.562212 19.9187C0.501446 19.4874 0.614486 19.0497 0.876465 18.7018C1.74031 17.5417 2.79701 16.5386 4.00049 15.7363C3.50024 15.0807 3.14014 14.3292 2.94256 13.5285C2.74497 12.7278 2.71413 11.8951 2.85195 11.082C2.98976 10.2689 3.29328 9.49285 3.74367 8.802C4.19405 8.11116 4.78167 7.52029 5.47003 7.06612C6.15838 6.61194 6.93278 6.30415 7.7451 6.16187C8.55742 6.01958 9.39032 6.04584 10.1921 6.23901C10.9938 6.43219 11.7473 6.78815 12.4057 7.28478C13.064 7.78142 13.6133 8.40813 14.0192 9.12597C14.1305 9.3149 14.2028 9.52422 14.2318 9.74156C14.2608 9.95889 14.246 10.1798 14.1881 10.3913C14.1303 10.6028 14.0307 10.8006 13.8951 10.973C13.7596 11.1453 13.5908 11.2887 13.3989 11.3947C13.207 11.5007 12.9957 11.5672 12.7777 11.5902C12.5596 11.6132 12.3392 11.5923 12.1293 11.5286C11.9195 11.4649 11.7246 11.3599 11.556 11.2196C11.3875 11.0793 11.2488 10.9067 11.1481 10.7119C10.9359 10.3275 10.6341 9.99993 10.2685 9.75682C9.90279 9.5137 9.48395 9.36223 9.04737 9.31521C8.61079 9.26819 8.1693 9.327 7.76026 9.48667C7.35121 9.64635 6.98663 9.90218 6.69736 10.2325C6.40809 10.5629 6.20264 10.9581 6.09838 11.3846C5.99412 11.8112 5.99412 12.2566 6.09838 12.6831C6.20264 13.1097 6.40809 13.5048 6.69736 13.8352C6.98663 14.1655 7.35121 14.4214 7.76025 14.581C8.0888 14.7091 8.36735 14.9395 8.55465 15.2383C8.74194 15.537 8.828 15.8882 8.80008 16.2396C8.77216 16.5911 8.63173 16.9243 8.39962 17.1897C8.16751 17.4552 7.85606 17.6387 7.51143 17.7133L7.51006 17.7174Z" fill="#EA580C"/>
</svg>
