<svg width="33" height="31" viewBox="0 0 33 31" fill="none" xmlns="http://www.w3.org/2000/svg">
<path d="M31.3241 11.6311C31.1674 11.1798 30.8729 10.7817 30.4774 10.4863C30.0818 10.1909 29.6025 10.0113 29.0992 9.96965L21.7515 9.37266L18.8769 2.93773C18.6792 2.50013 18.3487 2.12688 17.9267 1.86449C17.5047 1.6021 17.0098 1.46219 16.5037 1.46219C15.9977 1.46219 15.5028 1.6021 15.0808 1.86449C14.6588 2.12688 14.3283 2.50013 14.1306 2.93773L11.2521 9.37266L3.90444 9.96965C3.39834 10.009 2.91589 10.1879 2.51762 10.4839C2.11935 10.7799 1.823 11.1798 1.66576 11.6334C1.50852 12.087 1.49739 12.5741 1.63377 13.0336C1.77014 13.4932 2.04795 13.9046 2.43234 14.2164L8.01655 18.7938L6.34077 25.6041C6.22585 26.0678 6.25899 26.5531 6.43605 26.9992C6.61311 27.4454 6.92624 27.8326 7.33629 28.1125C7.74633 28.3924 8.23511 28.5525 8.74151 28.5729C9.24791 28.5932 9.74946 28.4729 10.1835 28.227L16.4999 24.6232L22.8163 28.227C23.2503 28.4725 23.7517 28.5925 24.2578 28.572C24.764 28.5514 25.2525 28.3912 25.6623 28.1114C26.0721 27.8316 26.3851 27.4445 26.5621 26.9986C26.7391 26.5527 26.7724 26.0676 26.6577 25.6041L24.9819 18.7938L30.5661 14.2164C30.9495 13.9035 31.2259 13.4912 31.3608 13.0313C31.4956 12.5713 31.4829 12.0842 31.3241 11.6311ZM22.7196 16.7921C22.3661 17.081 22.1031 17.455 21.9589 17.8738C21.8146 18.2926 21.7946 18.7405 21.901 19.1691L23.3693 25.1415L17.8341 21.9834C17.4321 21.7534 16.9705 21.6318 16.4999 21.6318C16.0292 21.6318 15.5677 21.7534 15.1657 21.9834L9.63046 25.1415L11.0987 19.1691C11.2051 18.7405 11.1851 18.2926 11.0409 17.8738C10.8967 17.455 10.6337 17.081 10.2801 16.7921L5.37011 12.7681L11.8335 12.2426C12.3015 12.2049 12.7496 12.0474 13.1289 11.7871C13.5083 11.5269 13.8043 11.1738 13.9849 10.7664L16.4999 5.1368L19.0148 10.7664C19.1954 11.1738 19.4915 11.5269 19.8708 11.7871C20.2502 12.0474 20.6982 12.2049 21.1663 12.2426L27.6296 12.7681L22.7196 16.7921Z" fill="#EAB308"/>
</svg>
