<svg width="28" height="32" viewBox="0 0 28 32" fill="none" xmlns="http://www.w3.org/2000/svg">
<path d="M17.4997 30.0796C17.4997 30.5147 17.3268 30.932 17.0191 31.2397C16.7115 31.5473 16.2942 31.7202 15.859 31.7202H11.484C11.0489 31.7202 10.6316 31.5473 10.3239 31.2397C10.0163 30.932 9.84341 30.5147 9.84341 30.0796C9.84341 29.6445 10.0163 29.2272 10.3239 28.9195C10.6316 28.6118 11.0489 28.4389 11.484 28.4389H15.859C16.2942 28.4389 16.7115 28.6118 17.0191 28.9195C17.3268 29.2272 17.4997 29.6445 17.4997 30.0796ZM13.6715 15.3139C14.1042 15.3139 14.5271 15.1857 14.8868 14.9453C15.2466 14.7049 15.527 14.3633 15.6925 13.9636C15.8581 13.5639 15.9014 13.124 15.817 12.6997C15.7326 12.2754 15.5243 11.8856 15.2183 11.5797C14.9124 11.2737 14.5226 11.0654 14.0983 10.981C13.674 10.8966 13.2341 10.9399 12.8344 11.1055C12.4347 11.271 12.0931 11.5514 11.8527 11.9111C11.6123 12.2709 11.484 12.6938 11.484 13.1264C11.484 13.7066 11.7145 14.263 12.1247 14.6732C12.535 15.0835 13.0914 15.3139 13.6715 15.3139ZM27.2792 20.8784L25.5893 28.4841C25.4899 28.938 25.2758 29.3589 24.9676 29.7067C24.6593 30.0544 24.2671 30.3174 23.8284 30.4706C23.5345 30.5739 23.2252 30.6266 22.9137 30.6264C22.304 30.6259 21.7122 30.4203 21.2334 30.0427L17.6596 27.3452H9.68345L6.10962 30.044C5.63074 30.4212 5.03892 30.6263 4.42935 30.6264C4.11777 30.6261 3.8085 30.573 3.5147 30.4692C3.07596 30.3161 2.68376 30.0531 2.3755 29.7053C2.06724 29.3576 1.85319 28.9366 1.75376 28.4827L0.0639165 20.8784C-0.0256807 20.4703 -0.0210247 20.0471 0.0775303 19.641C0.176085 19.2349 0.365944 18.8567 0.632667 18.535L4.43755 13.9686C4.58311 12.2577 4.98165 10.5778 5.62017 8.98387C7.43442 4.43797 10.6788 1.58739 11.9967 0.572932C12.476 0.201542 13.0652 0 13.6715 0C14.2779 0 14.867 0.201542 15.3463 0.572932C16.6588 1.58739 19.9086 4.43797 21.7229 8.98387C22.3614 10.5778 22.76 12.2577 22.9055 13.9686L26.7104 18.535C26.9771 18.8567 27.167 19.2349 27.2655 19.641C27.3641 20.0471 27.3687 20.4703 27.2792 20.8784ZM10.0881 24.0639H17.2549C19.9223 19.1831 20.3995 14.5237 18.6754 10.2007C17.2809 6.70067 14.7926 4.36278 13.6715 3.43582C12.5504 4.36278 10.0622 6.70067 8.66763 10.2007C6.94224 14.5237 7.42075 19.1831 10.0881 24.0639ZM7.00513 25.2561C5.91429 23.2287 5.13448 21.0487 4.69185 18.7893L3.32466 20.43L4.77114 26.9432L7.00513 25.2561ZM24.017 20.4286L22.6499 18.788C22.2072 21.0473 21.4274 23.2273 20.3366 25.2548L22.5692 26.9405L24.017 20.4286Z" fill="#0CC4B6"/>
</svg>
